<svg xmlns="http://www.w3.org/2000/svg" width="124.159" height="23.45" viewBox="0 0 124.159 23.45"><path data-name="パス 4" d="M16.102 16.619a6.628 6.628 0 01-.317 2.14 5.641 5.641 0 01-2.26 2.983 8 8 0 01-1.749.879 10.821 10.821 0 01-2.042.515 16.377 16.377 0 01-2.409.164l-5.9.027a1.4 1.4 0 01-.952-.328 1.37 1.37 0 01-.385-1.089L.006 2.6a1.356 1.356 0 01.38-1.085 1.4 1.4 0 01.949-.339l5.562-.024a14.837 14.837 0 013.45.328 6.848 6.848 0 012.384 1.025 4.578 4.578 0 011.486 1.746 5.649 5.649 0 01.523 2.5 5.388 5.388 0 01-.2 1.516 4.543 4.543 0 01-.594 1.294 4.385 4.385 0 01-.963 1.031 4.9 4.9 0 01-1.3.724 5.882 5.882 0 011.738.594 4.928 4.928 0 011.391 1.085 5.134 5.134 0 01.938 1.581 5.782 5.782 0 01.353 2.045zm-5.858-9.3a3.309 3.309 0 00-.2-1.2 2.17 2.17 0 00-.619-.88A2.891 2.891 0 008.384 4.7a5.966 5.966 0 00-1.671-.179H4.438l.024 5.749h2.517a4.323 4.323 0 001.546-.236 2.712 2.712 0 00.973-.634 2.576 2.576 0 00.57-.944 3.458 3.458 0 00.176-1.134zm1.181 9.481a3.5 3.5 0 00-.271-1.375 2.639 2.639 0 00-.757-1.017 3.5 3.5 0 00-1.269-.626 7.42 7.42 0 00-2-.22h-2.66l.027 6.3 3.254-.014a5.465 5.465 0 001.581-.2 3.211 3.211 0 001.109-.586 2.609 2.609 0 00.732-.963 3.054 3.054 0 00.258-1.3zM23.156 2.216a2.45 2.45 0 01-.523 1.8 2.926 2.926 0 01-1.966.5 2.912 2.912 0 01-1.961-.472 2.358 2.358 0 01-.513-1.725 2.484 2.484 0 01.526-1.806A2.836 2.836 0 0120.68 0a2.889 2.889 0 011.955.48 2.355 2.355 0 01.521 1.736zm-.242 20.434a.466.466 0 01-.1.3.762.762 0 01-.35.217 3.127 3.127 0 01-.659.13 9.9 9.9 0 01-1.044.046 10.218 10.218 0 01-1.044-.038 3 3 0 01-.659-.125.784.784 0 01-.353-.212.477.477 0 01-.1-.3l-.065-15.23a.464.464 0 01.1-.3.789.789 0 01.35-.225 2.845 2.845 0 01.659-.149 8.38 8.38 0 011.041-.054 8.679 8.679 0 011.047.046 2.877 2.877 0 01.659.144.814.814 0 01.35.22.456.456 0 01.106.3zm14.447-1.242a5.9 5.9 0 01-.049.849 2.357 2.357 0 01-.133.556.542.542 0 01-.222.271.613.613 0 01-.306.079l-9.977.043a.865.865 0 01-.713-.306 1.627 1.627 0 01-.252-1.009V21.1a3.649 3.649 0 01.024-.542 2.188 2.188 0 01.1-.494 3.175 3.175 0 01.212-.461 5.183 5.183 0 01.331-.542l5.679-8.855-5.408.022a.6.6 0 01-.523-.407 3.254 3.254 0 01-.2-1.318 7.051 7.051 0 01.041-.83 1.994 1.994 0 01.125-.542.6.6 0 01.222-.271.618.618 0 01.325-.089l9.326-.038a1.5 1.5 0 01.41.049.6.6 0 01.285.187 1 1 0 01.171.377 2.462 2.462 0 01.062.6v.838a5.036 5.036 0 01-.033.607 3.526 3.526 0 01-.1.5 2.552 2.552 0 01-.2.48c-.084.16-.184.334-.3.515l-5.649 8.849 6.023-.024a.643.643 0 01.293.065.542.542 0 01.231.255 1.792 1.792 0 01.149.523 5.917 5.917 0 01.054.846z" fill="#0086d1"/><path data-name="パス 5" d="M64.335 22.476a.474.474 0 01-.1.3.757.757 0 01-.342.214 2.967 2.967 0 01-.651.13c-.271.03-.621.046-1.044.049a8.08 8.08 0 01-1.06-.038 2.983 2.983 0 01-.659-.127.662.662 0 01-.342-.212.51.51 0 01-.1-.3l-.038-9.052a6.237 6.237 0 00-.149-1.4 3.341 3.341 0 00-.45-1.085 2.088 2.088 0 00-.757-.7 2.208 2.208 0 00-1.085-.244 2.579 2.579 0 00-1.554.6 10.38 10.38 0 00-1.706 1.755l.041 10.137a.469.469 0 01-.1.3.776.776 0 01-.35.217 3.127 3.127 0 01-.659.13 9.712 9.712 0 01-1.028.046 10.252 10.252 0 01-1.044-.038 3 3 0 01-.659-.125.762.762 0 01-.353-.214.464.464 0 01-.1-.3l-.038-9.052a6.2 6.2 0 00-.152-1.4 3.368 3.368 0 00-.439-1.085 2.034 2.034 0 00-.757-.683 2.281 2.281 0 00-1.085-.244 2.6 2.6 0 00-1.57.607 9.84 9.84 0 00-1.687 1.752l.041 10.148a.474.474 0 01-.1.3.759.759 0 01-.35.214 3.127 3.127 0 01-.659.13c-.271.03-.621.046-1.044.049a10.11 10.11 0 01-1.044-.041 3 3 0 01-.659-.125.784.784 0 01-.353-.212.469.469 0 01-.1-.3l-.06-15.266a.559.559 0 01.084-.3.634.634 0 01.309-.214 2.359 2.359 0 01.572-.13 7.593 7.593 0 01.881-.049 8.3 8.3 0 01.906.041 2.153 2.153 0 01.559.125.624.624 0 01.266.226.521.521 0 01.087.3v1.763a10.072 10.072 0 012.514-2.064 5.424 5.424 0 012.652-.705 6.91 6.91 0 011.695.19 4.844 4.844 0 011.356.561 4.144 4.144 0 011.017.876 5.058 5.058 0 01.724 1.144 12.745 12.745 0 011.337-1.272 7.987 7.987 0 011.3-.871 5.966 5.966 0 011.28-.5 5.3 5.3 0 011.31-.168 5.771 5.771 0 012.568.5 4.51 4.51 0 011.692 1.389 5.573 5.573 0 01.924 2.057 10.907 10.907 0 01.285 2.5zm16.332-.016a.447.447 0 01-.168.377 1.2 1.2 0 01-.542.2 7.114 7.114 0 01-1.085.062 7.5 7.5 0 01-1.123-.054.968.968 0 01-.5-.2.486.486 0 01-.146-.374v-1.212a6.9 6.9 0 01-2.142 1.584 6.262 6.262 0 01-2.674.578 7.482 7.482 0 01-2.235-.309 4.993 4.993 0 01-1.768-.933 4.22 4.22 0 01-1.161-1.543 5.261 5.261 0 01-.42-2.17 4.846 4.846 0 01.513-2.321 4.225 4.225 0 011.551-1.627 7.746 7.746 0 012.566-.957 18.425 18.425 0 013.574-.323h1.489v-.928a4.9 4.9 0 00-.152-1.256 2.067 2.067 0 00-.483-.9 1.958 1.958 0 00-.9-.526 4.681 4.681 0 00-1.378-.165 7.051 7.051 0 00-1.925.247 11.243 11.243 0 00-1.494.542c-.431.2-.795.374-1.085.542a1.562 1.562 0 01-.708.244.521.521 0 01-.336-.119.846.846 0 01-.239-.342 2.28 2.28 0 01-.149-.542 4.51 4.51 0 01-.054-.719 3.171 3.171 0 01.084-.841 1.272 1.272 0 01.32-.556 3.224 3.224 0 01.838-.542 10 10 0 011.4-.561 13.052 13.052 0 011.752-.426 12.879 12.879 0 015.033.168 5.185 5.185 0 012.113 1.031 4.193 4.193 0 011.2 1.869 8.7 8.7 0 01.388 2.712zm-4.252-6.509h-1.648a8.9 8.9 0 00-1.776.163 3.468 3.468 0 00-1.2.466 1.9 1.9 0 00-.673.748 2.262 2.262 0 00-.209 1 1.925 1.925 0 00.613 1.505 2.441 2.441 0 001.69.542 3.157 3.157 0 001.665-.469 6.882 6.882 0 001.546-1.356zm17.064 5.014a5.283 5.283 0 01-.09 1.155 1.22 1.22 0 01-.244.567 1.391 1.391 0 01-.453.293 4.011 4.011 0 01-.7.225 7.051 7.051 0 01-.873.149 8.49 8.49 0 01-.949.054 6.78 6.78 0 01-2.227-.315 3.688 3.688 0 01-1.559-1 4.144 4.144 0 01-.917-1.7 9.107 9.107 0 01-.3-2.441l-.033-7.821h-1.831a.542.542 0 01-.5-.377 3.8 3.8 0 01-.176-1.356 7.254 7.254 0 01.041-.838 2.01 2.01 0 01.125-.542.624.624 0 01.214-.271.521.521 0 01.3-.087h1.814l-.014-3.414a.518.518 0 01.092-.309.71.71 0 01.342-.231 2.65 2.65 0 01.664-.141c.271-.03.626-.043 1.036-.046a10.457 10.457 0 011.052.038 2.546 2.546 0 01.67.146.746.746 0 01.342.228.513.513 0 01.106.309l.014 3.4h3.319a.542.542 0 01.3.084.626.626 0 01.217.271 2.066 2.066 0 01.13.542 6.581 6.581 0 01.046.838 3.707 3.707 0 01-.165 1.342c-.114.271-.271.4-.494.407H89.44l.03 7.17a3.5 3.5 0 00.4 1.871 1.536 1.536 0 001.407.618 2.847 2.847 0 00.616-.062 3.929 3.929 0 00.485-.138c.144-.052.271-.1.361-.138a.751.751 0 01.271-.062.374.374 0 01.2.06.412.412 0 01.146.239 4.132 4.132 0 01.1.488 6.163 6.163 0 01.019.796zm16.909-6.593a1.654 1.654 0 01-.347 1.163 1.253 1.253 0 01-.963.382l-9.294.038a6.311 6.311 0 00.239 1.771 3.379 3.379 0 00.74 1.356 3.2 3.2 0 001.3.841 5.563 5.563 0 001.9.271 10.658 10.658 0 001.985-.171 13.216 13.216 0 001.478-.366c.418-.133.762-.255 1.033-.363a1.874 1.874 0 01.667-.165.526.526 0 01.258.057.475.475 0 01.174.214 1.464 1.464 0 01.095.437c.019.187.027.426.03.711a6.19 6.19 0 01-.016.64 4.21 4.21 0 01-.049.456 1.15 1.15 0 01-.1.317 1.235 1.235 0 01-.179.247 2.085 2.085 0 01-.607.328 9.954 9.954 0 01-1.264.41 17 17 0 01-1.76.347 14.525 14.525 0 01-2.123.155 11.2 11.2 0 01-3.569-.5 6.314 6.314 0 01-2.566-1.546 6.452 6.452 0 01-1.543-2.628 12.338 12.338 0 01-.521-3.729 11.858 11.858 0 01.515-3.675 7.713 7.713 0 011.53-2.777 6.59 6.59 0 012.441-1.746 9.47 9.47 0 016.536-.062 5.9 5.9 0 012.24 1.557 6.286 6.286 0 011.294 2.365 10.386 10.386 0 01.423 2.983zm-4.182-1.215a4.419 4.419 0 00-.739-2.847 2.81 2.81 0 00-2.408-1.025 3.146 3.146 0 00-1.429.315 2.9 2.9 0 00-1.006.827 3.781 3.781 0 00-.624 1.234 6.049 6.049 0 00-.241 1.516zm17.952 4.953a5.1 5.1 0 01-.485 2.294 4.569 4.569 0 01-1.356 1.668 6.189 6.189 0 01-2.1 1.009 10.417 10.417 0 01-5.665-.095 7.323 7.323 0 01-1.028-.4 2.579 2.579 0 01-.6-.382 1.209 1.209 0 01-.293-.564 4.834 4.834 0 01-.108-1.136 7.761 7.761 0 01.033-.8 1.987 1.987 0 01.1-.48.42.42 0 01.171-.244.493.493 0 01.255-.062 1.3 1.3 0 01.559.212 10.032 10.032 0 00.917.466 9.586 9.586 0 001.269.469 5.633 5.633 0 001.652.214 4.008 4.008 0 001.036-.122 2.592 2.592 0 00.784-.347 1.446 1.446 0 00.5-.559 1.738 1.738 0 00.165-.786 1.3 1.3 0 00-.317-.881 2.85 2.85 0 00-.843-.637 9.787 9.787 0 00-1.182-.51q-.659-.236-1.356-.523a12.272 12.272 0 01-1.356-.662 5.2 5.2 0 01-1.185-.919 4.214 4.214 0 01-.841-1.318 4.827 4.827 0 01-.325-1.847 4.711 4.711 0 01.42-2.012 4.361 4.361 0 011.226-1.565 5.836 5.836 0 011.955-1.02 8.814 8.814 0 012.593-.369 9.022 9.022 0 011.394.1 10.152 10.152 0 011.226.249 5.965 5.965 0 01.925.331 3.026 3.026 0 01.542.306.865.865 0 01.233.255 1.229 1.229 0 01.1.306c.024.122.043.271.062.447s.027.4.03.656a6.656 6.656 0 01-.024.754 1.9 1.9 0 01-.084.464.4.4 0 01-.16.231.5.5 0 01-.241.062 1.164 1.164 0 01-.477-.179 8.925 8.925 0 00-.814-.382 9.811 9.811 0 00-1.131-.38 5.478 5.478 0 00-1.464-.174 3.8 3.8 0 00-1.009.125 1.92 1.92 0 00-.7.344 1.459 1.459 0 00-.41.523 1.56 1.56 0 00-.133.643 1.261 1.261 0 00.328.89 2.983 2.983 0 00.86.629 9.46 9.46 0 001.207.507c.453.16.909.331 1.372.518a12.852 12.852 0 011.372.651 5.223 5.223 0 011.21.919 4.228 4.228 0 01.86 1.307 4.553 4.553 0 01.328 1.8z" fill="#3e3a39"/></svg>