<svg xmlns="http://www.w3.org/2000/svg" width="121.284" height="24.479" viewBox="0 0 121.284 24.479"><g data-name="レイヤー 1"><path data-name="パス 8" d="M19.589 5.024A15.428 15.428 0 0013.5 3.772c-5.514 0-8.561 3.72-8.561 8.561s2.986 8.424 8.022 8.424a12.893 12.893 0 003.114-.344v-6.152h-5.01v-3.723H20.6v12.723a29.794 29.794 0 01-7.647 1.219C5.313 24.479 0 20.656 0 12.671 0 4.57 4.938.049 12.957.049a23.3 23.3 0 016.937.981z" fill="#a99509"/><path data-name="パス 9" d="M35.087 4.177h-6.754V.457h18.279v3.72h-6.788v19.891h-4.737zm11.4 3.385a15.565 15.565 0 016.057-1.319c5.31 0 7.51 2.2 7.51 7.342v2.23c0 1.761.034 3.08.067 4.366s.1 2.538.2 3.89h-3.988a21.418 21.418 0 01-.2-2.6h-.073a6.231 6.231 0 01-5.38 3.013c-3.08 0-6.093-1.861-6.093-5.179a5.117 5.117 0 012.976-4.972 13.834 13.834 0 015.852-1.015h2.5c0-2.809-1.252-3.756-3.924-3.756a9.112 9.112 0 00-5.38 1.895zm5.3 13.6a3.845 3.845 0 003.181-1.557 5.762 5.762 0 00.948-3.586h-1.962c-2.029 0-5.042.338-5.042 3.013.01 1.487 1.262 2.129 2.88 2.129zM63.621 0h4.533v24.068h-4.533zm22.812 23.09a11.971 11.971 0 01-5.99 1.389c-5.752 0-9.1-3.318-9.1-9.036 0-5.039 2.675-9.2 8.089-9.2 6.462 0 8.29 4.43 8.29 10.52H75.673c.2 2.809 2.166 4.4 4.975 4.4a11.788 11.788 0 005.785-1.763zm-3.047-9.444c-.134-2.2-1.149-4.095-3.686-4.095s-3.823 1.758-4.028 4.095zm7.187-7h4.3v2.369h.067a6.512 6.512 0 015.718-2.772c4.128 0 5.923 2.909 5.923 6.833v10.992h-4.518v-9.3c0-2.133-.037-5.005-2.946-5.005-3.281 0-3.991 3.552-3.991 5.788v8.518h-4.549zm21.844 3.315h-3.351V6.648h3.351V3.162l4.533-1.456v4.942h4.028v3.314h-4.028v8.122c0 1.487.405 2.876 2.133 2.876a4.043 4.043 0 002.063-.475l.137 3.583a11.922 11.922 0 01-3.351.408c-3.552 0-5.514-2.2-5.514-5.651z" fill="#3d3a39"/></g></svg>