<svg xmlns="http://www.w3.org/2000/svg" width="92.689" height="28.358" viewBox="0 0 92.689 28.358"><path data-name="パス 10" d="M75.086 6.122h4.2v2.781a6.8 6.8 0 015.758-3.1c3.936 0 7.65 2.9 7.65 8.745v.463c0 5.809-3.677 8.745-7.65 8.745a6.9 6.9 0 01-5.758-2.935v7.537h-4.2zm13.091 8.805v-.29c0-3.354-1.98-5.407-4.43-5.407s-4.539 2.089-4.539 5.381v.309c0 3.29 2.09 5.379 4.539 5.379 2.489.007 4.43-2.018 4.43-5.372z" fill="#3d3a39"/><path data-name="パス 11" d="M23.976.409h4.152v3.553h-4.152zm.139 5.773h3.908v17.821h-3.908z" fill="#4ea8b4"/><path data-name="パス 12" d="M31.977 19.671v-10.2h-2.008V6.117h2.008V.815h3.91v5.306h4.117v3.357h-4.125v9.4a1.754 1.754 0 001.971 2.008 4.426 4.426 0 002.11-.519v3.218a6.652 6.652 0 01-3.252.8c-2.698-.008-4.731-1.15-4.731-4.714z" fill="#4ea8b4"/><path data-name="パス 13" d="M19.545 4.968a15.432 15.432 0 00-6.076-1.25c-5.5 0-8.541 3.708-8.541 8.54 0 4.789 2.971 8.405 8 8.405a12.794 12.794 0 003.105-.337v-6.144h-5v-3.717h9.519v12.693a29.732 29.732 0 01-7.628 1.216c-7.628 0-12.929-3.814-12.929-11.781C-.005 4.526 4.923.001 12.924.001a23.281 23.281 0 016.921.979z" fill="#4ea8b4"/><path data-name="パス 14" d="M46.748 4.123h-6.751V.409h18.227v3.714h-6.751v19.848h-4.726z" fill="#3d3a39"/><path data-name="パス 15" d="M58.031 7.14a15.912 15.912 0 016.179-1.344c5.407 0 7.653 2.24 7.653 7.48v2.275c0 1.792.034 3.138.068 4.448.036 1.344.1 2.584.207 3.964h-4.075a21.367 21.367 0 01-.207-2.654h-.069a6.338 6.338 0 01-5.481 3.068c-3.138 0-6.2-1.9-6.2-5.274a5.216 5.216 0 013.032-5.069 14.063 14.063 0 015.965-1.033h2.551c0-2.863-1.274-3.827-4-3.827a9.3 9.3 0 00-5.481 1.929zm5.407 13.859a3.915 3.915 0 003.244-1.587 5.884 5.884 0 00.966-3.653h-1.993c-2.069 0-5.137.344-5.137 3.068 0 1.517 1.276 2.172 2.935 2.172" fill="#3d3a39"/></svg>