<svg xmlns="http://www.w3.org/2000/svg" width="567.946" height="99.67" viewBox="0 0 567.946 99.67"><g data-name="レイヤー 1"><path data-name="パス 7003" d="M185.08 63.4A23.43 23.43 0 01184 71a20.16 20.16 0 01-3.15 6 20.61 20.61 0 01-4.85 4.51 28.35 28.35 0 01-6.2 3.12 39.329 39.329 0 01-7.24 1.82 59.81 59.81 0 01-8.57.61l-20.86.08a4.94 4.94 0 01-3.41-1.14 4.82 4.82 0 01-1.38-3.85l-.29-68.4a4.81 4.81 0 011.35-3.85 5 5 0 013.36-1.2l19.7-.08a52.47 52.47 0 0112.23 1.16 24.06 24.06 0 018.44 3.63 16.19 16.19 0 015.27 6.2 20 20 0 011.86 8.84 19.47 19.47 0 01-.7 5.37 16.3 16.3 0 01-2.11 4.59A15.71 15.71 0 01174 42a17.44 17.44 0 01-4.63 2.57 20.72 20.72 0 016.17 2.09 17.56 17.56 0 014.92 3.89 18.29 18.29 0 013.33 5.6 20.44 20.44 0 011.29 7.25zm-20.76-33a11.74 11.74 0 00-.74-4.24 7.87 7.87 0 00-2.2-3.12 10.07 10.07 0 00-3.68-1.89 21.12 21.12 0 00-5.91-.64h-8.07l.09 20.49h8.91a15.12 15.12 0 005.52-.85 9.49 9.49 0 003.41-2.25 9.09 9.09 0 002-3.35 12 12 0 00.67-4.11zm4.2 33.6a12.12 12.12 0 00-.93-4.87 9.24 9.24 0 00-2.68-3.6 12.32 12.32 0 00-4.5-2.23 26.22 26.22 0 00-7.09-.75h-9.46l.14 22.36h11.52a19.52 19.52 0 005.61-.72 11.37 11.37 0 003.87-2.13 9.4 9.4 0 002.59-3.4 10.94 10.94 0 00.93-4.66z" fill="#0f0a14"/><path data-name="パス 7004" d="M210.07 12.36c0 3.07-.61 5.2-1.86 6.37s-3.56 1.78-7 1.79-5.75-.54-6.95-1.67-1.8-3.16-1.82-6.11.6-5.21 1.83-6.41 3.56-1.8 7-1.82 5.71.56 6.92 1.7 1.87 3.2 1.88 6.15zm-.85 72.4a1.69 1.69 0 01-.36 1.07 2.69 2.69 0 01-1.24.76 10.268 10.268 0 01-2.33.46 33.838 33.838 0 01-3.7.17 30.442 30.442 0 01-3.7-.13 11 11 0 01-2.34-.45 2.69 2.69 0 01-1.24-.75 1.61 1.61 0 01-.37-1.06l-.23-54a1.66 1.66 0 01.36-1.06 2.88 2.88 0 011.24-.79 10.51 10.51 0 012.33-.53 32.851 32.851 0 013.7-.2 31.38 31.38 0 013.7.17 10.61 10.61 0 012.34.51 2.82 2.82 0 011.24.78 1.59 1.59 0 01.38 1.09z" fill="#0f0a14"/><path data-name="パス 7005" d="M260.4 80.37a20.077 20.077 0 01-.17 3 8 8 0 01-.47 2 2 2 0 01-.79 1 2.18 2.18 0 01-1.09.27l-35.35.15a3 3 0 01-2.53-1.1 5.66 5.66 0 01-.89-3.57v-2.79a17 17 0 01.08-2 8.54 8.54 0 01.35-1.7 10.39 10.39 0 01.72-1.67 20.456 20.456 0 011.18-1.89l20.12-31.37-19.16.08a2.11 2.11 0 01-1.86-1.45 11.69 11.69 0 01-.71-4.66 22.465 22.465 0 01.14-3 6.851 6.851 0 01.44-1.88 1.963 1.963 0 011.94-1.31l33.05-.14a5.13 5.13 0 011.45.18 2 2 0 011 .66 3.579 3.579 0 01.61 1.33 9.589 9.589 0 01.22 2.12v3a17.4 17.4 0 01-.11 2.15 12.322 12.322 0 01-.36 1.79 8.669 8.669 0 01-.69 1.7c-.3.57-.65 1.17-1.05 1.82l-20 31.32 21.34-.09a2.13 2.13 0 011 .23 2 2 0 01.83.91 6.831 6.831 0 01.52 1.85 20.2 20.2 0 01.24 3.06z" fill="#0f0a14"/><path data-name="パス 7006" d="M356 84.15a1.69 1.69 0 01-.36 1.07 2.68 2.68 0 01-1.21.76 9.74 9.74 0 01-2.3.46 33.839 33.839 0 01-3.7.17 31.164 31.164 0 01-3.76-.13 11 11 0 01-2.34-.45 2.47 2.47 0 01-1.21-.75 1.77 1.77 0 01-.34-1.06l-.14-32.08a21.833 21.833 0 00-.53-5 11.74 11.74 0 00-1.59-3.84 7.55 7.55 0 00-2.68-2.48A7.92 7.92 0 00332 40a9.16 9.16 0 00-5.51 2.14 37.2 37.2 0 00-6 6.22l.15 35.95a1.69 1.69 0 01-.36 1.07 2.78 2.78 0 01-1.24.76 10.83 10.83 0 01-2.34.46 35.509 35.509 0 01-3.63.17 34.789 34.789 0 01-3.7-.14 10.5 10.5 0 01-2.34-.44 2.63 2.63 0 01-1.24-.75 1.63 1.63 0 01-.37-1.06l-.14-32.08a21.771 21.771 0 00-.53-5 12.069 12.069 0 00-1.56-3.84 7.229 7.229 0 00-2.75-2.46 8 8 0 00-3.83-.86 9.23 9.23 0 00-5.61 2.14 35.892 35.892 0 00-6 6.21l.15 36a1.64 1.64 0 01-.36 1.06 2.75 2.75 0 01-1.24.77 11 11 0 01-2.34.46 36.352 36.352 0 01-3.69.17 28.28 28.28 0 01-3.7-.14 11.11 11.11 0 01-2.34-.44 2.65 2.65 0 01-1.25-.76 1.64 1.64 0 01-.36-1.06l-.23-54.08a1.91 1.91 0 01.3-1.07 2.26 2.26 0 011.09-.76 8.64 8.64 0 012-.46 26 26 0 013.12-.17 31.24 31.24 0 013.21.14 7.47 7.47 0 012 .45 2.29 2.29 0 011 .75 2 2 0 01.31 1.06v6.25a35.7 35.7 0 018.92-7.32 19.24 19.24 0 019.41-2.5 23.62 23.62 0 016 .67 17.339 17.339 0 014.77 2 15.11 15.11 0 013.62 3.11 18.289 18.289 0 012.56 4 45.311 45.311 0 014.74-4.5 28.49 28.49 0 014.6-3.09 21.3 21.3 0 014.54-1.77 19 19 0 014.64-.6 20.6 20.6 0 019.1 1.78 15.85 15.85 0 016 4.92 19.9 19.9 0 013.28 7.29 39.46 39.46 0 011 8.85z" fill="#0f0a14"/><path data-name="パス 7007" d="M413.83 84.1a1.56 1.56 0 01-.6 1.33 4.15 4.15 0 01-1.9.71 35.7 35.7 0 01-7.83 0 3.46 3.46 0 01-1.76-.69 1.74 1.74 0 01-.52-1.33v-4.31a24.389 24.389 0 01-7.58 5.61 22 22 0 01-9.48 2 26.52 26.52 0 01-7.92-1.08A17.78 17.78 0 01370 83.1a15.08 15.08 0 01-4.12-5.47 18.819 18.819 0 01-1.53-7.63 17.361 17.361 0 011.82-8.22 15 15 0 015.49-5.78 27.58 27.58 0 019.11-3.4 65.511 65.511 0 0112.67-1.14h5.28v-3.32a17.21 17.21 0 00-.54-4.45 7.45 7.45 0 00-1.71-3.18 7 7 0 00-3.16-1.87 16.73 16.73 0 00-4.88-.58 24.85 24.85 0 00-6.82.88 37.551 37.551 0 00-5.3 1.9 38.409 38.409 0 00-3.84 1.89 5.63 5.63 0 01-2.51.86 1.82 1.82 0 01-1.19-.42 3 3 0 01-.85-1.21 8.28 8.28 0 01-.53-1.94 16.326 16.326 0 01-.19-2.54 11.311 11.311 0 01.29-3 4.63 4.63 0 011.14-2 11.43 11.43 0 013-2 34.521 34.521 0 015-2 46.272 46.272 0 016.21-1.52 45.81 45.81 0 0117.83.6 18.35 18.35 0 017.33 3.9 14.86 14.86 0 014.27 6.62 30.87 30.87 0 011.37 9.63zM398.76 61h-5.82a31.23 31.23 0 00-6.3.57 11.85 11.85 0 00-4.24 1.66 6.73 6.73 0 00-2.4 2.66 8 8 0 00-.74 3.56 6.81 6.81 0 002.17 5.32 8.6 8.6 0 006 1.92 11.26 11.26 0 005.9-1.69 24.681 24.681 0 005.47-4.82z" fill="#0f0a14"/><path data-name="パス 7008" d="M459.23 78.8a18.82 18.82 0 01-.32 4.1 4.31 4.31 0 01-.87 2 4.661 4.661 0 01-1.6 1 15.081 15.081 0 01-2.48.8 28.293 28.293 0 01-3.09.53 31.417 31.417 0 01-3.37.19 24.17 24.17 0 01-7.88-1.11 13.18 13.18 0 01-5.54-3.53 14.84 14.84 0 01-3.24-6 32 32 0 01-1.06-8.61l-.12-27.71h-6.49a1.93 1.93 0 01-1.76-1.42 13.169 13.169 0 01-.63-4.75 25.1 25.1 0 01.14-3 7.251 7.251 0 01.45-1.91 2.23 2.23 0 01.75-1 1.89 1.89 0 011.06-.31h6.43l-.05-12.06a1.85 1.85 0 01.33-1.1 2.54 2.54 0 011.21-.82 9.55 9.55 0 012.36-.49 33.9 33.9 0 013.67-.17 31.318 31.318 0 013.73.13 9.13 9.13 0 012.33.48 2.71 2.71 0 011.22.81 1.82 1.82 0 01.37 1.09l.05 12.07 11.76-.01a1.88 1.88 0 011.06.3 2.2 2.2 0 01.77 1 7.51 7.51 0 01.46 1.91 24.324 24.324 0 01.16 3 13.29 13.29 0 01-.58 4.76c-.4 1-1 1.43-1.76 1.43l-11.82.05.12 25.38q0 4.42 1.42 6.63 1.395 2.205 5 2.19a9.69 9.69 0 002.18-.22 14 14 0 001.73-.49l1.27-.49a2.54 2.54 0 01.94-.22 1.32 1.32 0 01.7.21 1.46 1.46 0 01.52.85 14.664 14.664 0 01.34 1.73 20.721 20.721 0 01.13 2.78z" fill="#0f0a14"/><path data-name="パス 7009" d="M519.09 55.41a5.86 5.86 0 01-1.23 4.13 4.46 4.46 0 01-3.42 1.35l-32.92.11a22.668 22.668 0 00.84 6.28 12.09 12.09 0 002.64 4.8 11.48 11.48 0 004.62 3 19.8 19.8 0 006.77 1 37.249 37.249 0 007-.61 46.759 46.759 0 005.24-1.29q2.21-.7 3.66-1.29a7 7 0 012.36-.59 1.84 1.84 0 01.92.21 1.55 1.55 0 01.6.76 4.772 4.772 0 01.34 1.54c.07.67.1 1.51.11 2.52a21.072 21.072 0 01-.06 2.27 14.522 14.522 0 01-.17 1.61 3.781 3.781 0 01-.36 1.12 4.268 4.268 0 01-.63.89 7.639 7.639 0 01-2.15 1.16 33.309 33.309 0 01-4.49 1.44 60.655 60.655 0 01-6.21 1.18 52.309 52.309 0 01-7.52.55 39.73 39.73 0 01-12.65-1.77 22.55 22.55 0 01-9.09-5.48 22.889 22.889 0 01-5.46-9.3A43.8 43.8 0 01466 57.81a41.92 41.92 0 011.83-13 27.209 27.209 0 015.39-9.81 23.55 23.55 0 018.68-6.19 33.576 33.576 0 0123.16-.22 20.91 20.91 0 017.94 5.47 22.38 22.38 0 014.58 8.38 36.809 36.809 0 011.5 10.56zm-14.81-4.31q.15-6.42-2.62-10.08t-8.54-3.63a11.16 11.16 0 00-5.06 1.11 10.26 10.26 0 00-3.56 3 13.05 13.05 0 00-2.16 4.37 21.089 21.089 0 00-.86 5.37z" fill="#0f0a14"/><path data-name="パス 7010" d="M567.94 68.68a18.18 18.18 0 01-1.69 8.14 16.14 16.14 0 01-4.86 5.9A22.18 22.18 0 01554 86.3a35.461 35.461 0 01-9.34 1.22 36 36 0 01-5.79-.43 36.658 36.658 0 01-4.99-1.09 26 26 0 01-3.65-1.41 9.15 9.15 0 01-2.13-1.36 4.31 4.31 0 01-1-2 17.149 17.149 0 01-.38-4 26.333 26.333 0 01.12-2.82 7 7 0 01.35-1.7 1.61 1.61 0 01.6-.85 1.8 1.8 0 01.91-.21 4.39 4.39 0 012 .75c.87.5 2 1 3.25 1.65a34.4 34.4 0 004.52 1.68 19.92 19.92 0 005.86.76 14.15 14.15 0 003.67-.44 9.16 9.16 0 002.78-1.22 5.2 5.2 0 001.78-2 6.221 6.221 0 00.59-2.79 4.62 4.62 0 00-1.15-3.2 10 10 0 00-3-2.26 35.37 35.37 0 00-4.19-1.8q-2.34-.84-4.8-1.86a43.479 43.479 0 01-4.8-2.35 18.231 18.231 0 01-4.2-3.25 14.86 14.86 0 01-3-4.66 17.131 17.131 0 01-1.15-6.55 16.679 16.679 0 011.47-7.11 15.54 15.54 0 014.35-5.56 20.51 20.51 0 016.93-3.61 30.69 30.69 0 019.18-1.31 33.319 33.319 0 014.94.34 36.75 36.75 0 014.34.89 20.722 20.722 0 013.28 1.17 11.21 11.21 0 011.92 1.08 3.35 3.35 0 01.82.91 4.223 4.223 0 01.37 1.09c.08.43.15.95.21 1.58s.1 1.4.11 2.33q0 1.63-.09 2.67a6.656 6.656 0 01-.29 1.64 1.47 1.47 0 01-.57.82 1.82 1.82 0 01-.85.22 4.15 4.15 0 01-1.7-.63 28.994 28.994 0 00-2.89-1.36 32.375 32.375 0 00-4-1.34 19 19 0 00-5.18-.62 13.42 13.42 0 00-3.58.44 6.93 6.93 0 00-2.49 1.25 5.071 5.071 0 00-1.45 1.86 5.31 5.31 0 00-.47 2.27 4.49 4.49 0 001.16 3.15 10.51 10.51 0 003 2.23 32.221 32.221 0 004.29 1.8c1.59.57 3.21 1.17 4.85 1.83a44.847 44.847 0 014.86 2.32 18.11 18.11 0 014.29 3.25 15.1 15.1 0 013 4.63 16.161 16.161 0 011.27 6.34z" fill="#0f0a14"/><path data-name="パス 7011" d="M86.32 74.75L43.15 49.83v49.84z" fill="#cbcbcb"/><path data-name="パス 7012" d="M43.19 49.82l43.13-24.9L43.19.02V0l-.02.01-.02-.01v.02L.02 24.92l43.13 24.9v.02l.02-.01z" fill="#a99509"/><path data-name="パス 7013" d="M43.17 49.86v-.03h-.01L.02 24.92v49.82l-.02.01.02.01v.01l.01-.01 43.14 24.91z" fill="#e4e4e4"/></g></svg>